@startuml

[*] --> Idle
Idle --> Red : bConditionEnable
Red --> Red_Orange : bConditionRedOrange
Red_Orange --> Green : bConditionGreeen
Green --> Orange : bConditionOrange
Orange -->  Red : bConditionRed

Idle --> Warning : bError
Red --> Warning : bError
Red_Orange --> Warning : bError
Green --> Warning : bError
Orange -->  Warning : bError

Red --> Idle: NOT bConditionRedOrange
Red_Orange --> Idle : NOT bConditionGreeen
Green --> Idle : NOT bConditionOrange
Orange -->  Idle : NOT bConditionRed
Warning --> Idle : NOT bConditionRed

@enduml